<svg width="150" height="150" viewBox="0 0 150 150" fill="none" xmlns="http://www.w3.org/2000/svg">
<circle cx="75" cy="75" r="73" fill="white" stroke="#CCCCCC" stroke-width="4"/>
<path d="M19.6576 69C19.1296 69 18.6416 68.872 18.1936 68.616C17.7616 68.36 17.4176 68.016 17.1616 67.584C16.9056 67.136 16.7776 66.648 16.7776 66.12V54.6C16.7776 54.072 16.9056 53.592 17.1616 53.16C17.4176 52.712 17.7616 52.36 18.1936 52.104C18.6416 51.848 19.1296 51.72 19.6576 51.72H34.0096V53.664H19.6576C19.4016 53.664 19.1776 53.76 18.9856 53.952C18.8096 54.128 18.7216 54.344 18.7216 54.6V66.12C18.7216 66.376 18.8096 66.6 18.9856 66.792C19.1776 66.968 19.4016 67.056 19.6576 67.056H34.0096V69H19.6576ZM39.32 69C38.792 69 38.304 68.872 37.856 68.616C37.424 68.344 37.072 67.992 36.8 67.56C36.544 67.112 36.416 66.624 36.416 66.096V61.056H48.608V57.984C48.608 57.728 48.512 57.512 48.32 57.336C48.144 57.144 47.928 57.048 47.672 57.048H36.416V55.08H47.672C48.216 55.08 48.704 55.216 49.136 55.488C49.584 55.744 49.936 56.096 50.192 56.544C50.464 56.976 50.6 57.456 50.6 57.984V69H39.32ZM39.32 67.032H48.608V63.024H38.384V66.096C38.384 66.352 38.472 66.576 38.648 66.768C38.84 66.944 39.064 67.032 39.32 67.032ZM52.9628 69V57.984C52.9628 57.456 53.0908 56.976 53.3468 56.544C53.6188 56.096 53.9708 55.744 54.4028 55.488C54.8508 55.216 55.3388 55.08 55.8668 55.08H63.6908V57.048H55.8668C55.6108 57.048 55.3868 57.144 55.1948 57.336C55.0188 57.512 54.9308 57.728 54.9308 57.984V69H52.9628ZM67.4761 69C66.9321 69 66.4361 68.872 65.9881 68.616C65.5561 68.344 65.2041 67.992 64.9321 67.56C64.6761 67.112 64.5481 66.624 64.5481 66.096V57.984C64.5481 57.456 64.6761 56.976 64.9321 56.544C65.2041 56.096 65.5561 55.744 65.9881 55.488C66.4361 55.216 66.9321 55.08 67.4761 55.08H76.7641V50.52H78.7321V69H67.4761ZM67.4761 67.032H75.8281C76.0841 67.032 76.3001 66.944 76.4761 66.768C76.6681 66.576 76.7641 66.352 76.7641 66.096V57.984C76.7641 57.728 76.6681 57.512 76.4761 57.336C76.3001 57.144 76.0841 57.048 75.8281 57.048H67.4761C67.2201 57.048 66.9961 57.144 66.8041 57.336C66.6281 57.512 66.5401 57.728 66.5401 57.984V66.096C66.5401 66.352 66.6281 66.576 66.8041 66.768C66.9961 66.944 67.2201 67.032 67.4761 67.032ZM84.1559 69C83.6279 69 83.1399 68.872 82.6919 68.616C82.2599 68.344 81.9079 67.992 81.6359 67.56C81.3799 67.112 81.2519 66.624 81.2519 66.096V61.056H93.4439V57.984C93.4439 57.728 93.3479 57.512 93.1559 57.336C92.9799 57.144 92.7639 57.048 92.5079 57.048H81.2519V55.08H92.5079C93.0519 55.08 93.5399 55.216 93.9719 55.488C94.4199 55.744 94.7719 56.096 95.0279 56.544C95.2999 56.976 95.4359 57.456 95.4359 57.984V69H84.1559ZM84.1559 67.032H93.4439V63.024H83.2199V66.096C83.2199 66.352 83.3079 66.576 83.4839 66.768C83.6759 66.944 83.8999 67.032 84.1559 67.032ZM87.6839 53.64L88.5239 50.304H90.4199L89.6039 53.64H87.6839ZM97.964 74.52V55.08H109.244C109.772 55.08 110.252 55.216 110.684 55.488C111.132 55.744 111.484 56.096 111.74 56.544C112.012 56.976 112.148 57.456 112.148 57.984V66.096C112.148 66.624 112.012 67.112 111.74 67.56C111.484 67.992 111.132 68.344 110.684 68.616C110.252 68.872 109.772 69 109.244 69H99.932V74.52H97.964ZM100.892 67.032H109.244C109.5 67.032 109.716 66.944 109.892 66.768C110.084 66.576 110.18 66.352 110.18 66.096V57.984C110.18 57.728 110.084 57.512 109.892 57.336C109.716 57.144 109.5 57.048 109.244 57.048H100.892C100.636 57.048 100.412 57.144 100.22 57.336C100.028 57.512 99.932 57.728 99.932 57.984V66.096C99.932 66.352 100.028 66.576 100.22 66.768C100.412 66.944 100.636 67.032 100.892 67.032ZM114.205 69V55.08H116.173V69H114.205ZM114.205 52.488V50.52H116.173V52.488H114.205ZM122.077 69C121.549 69 121.061 68.872 120.613 68.616C120.181 68.344 119.829 67.992 119.557 67.56C119.301 67.112 119.173 66.624 119.173 66.096V57.984C119.173 57.456 119.301 56.976 119.557 56.544C119.829 56.096 120.181 55.744 120.613 55.488C121.061 55.216 121.549 55.08 122.077 55.08H130.429C130.973 55.08 131.461 55.216 131.893 55.488C132.341 55.744 132.693 56.096 132.949 56.544C133.221 56.976 133.357 57.456 133.357 57.984V66.096C133.357 66.624 133.221 67.112 132.949 67.56C132.693 67.992 132.341 68.344 131.893 68.616C131.461 68.872 130.973 69 130.429 69H122.077ZM122.077 67.032H130.429C130.685 67.032 130.901 66.944 131.077 66.768C131.269 66.576 131.365 66.352 131.365 66.096V57.984C131.365 57.728 131.269 57.512 131.077 57.336C130.901 57.144 130.685 57.048 130.429 57.048H122.077C121.821 57.048 121.597 57.144 121.405 57.336C121.229 57.512 121.141 57.728 121.141 57.984V66.096C121.141 66.352 121.229 66.576 121.405 66.768C121.597 66.944 121.821 67.032 122.077 67.032ZM8.63869 99V81.72H10.6067V99H8.63869ZM13.4835 99V85.08H24.7635C25.2915 85.08 25.7715 85.216 26.2035 85.488C26.6515 85.744 27.0035 86.096 27.2595 86.544C27.5315 86.976 27.6675 87.456 27.6675 87.984V99H25.6995V87.984C25.6995 87.728 25.6035 87.512 25.4115 87.336C25.2355 87.144 25.0195 87.048 24.7635 87.048H16.4115C16.1555 87.048 15.9315 87.144 15.7395 87.336C15.5475 87.512 15.4515 87.728 15.4515 87.984V99H13.4835ZM33.0744 99C32.5304 99 32.0344 98.872 31.5864 98.616C31.1544 98.344 30.8104 97.992 30.5544 97.56C30.2984 97.112 30.1704 96.624 30.1704 96.096V80.52H32.1384V85.08H38.1624V87.048H32.1384V96.096C32.1384 96.352 32.2264 96.576 32.4024 96.768C32.5944 96.944 32.8184 97.032 33.0744 97.032H38.1624V99H33.0744ZM42.8702 99C42.3422 99 41.8542 98.872 41.4062 98.616C40.9742 98.344 40.6222 97.992 40.3502 97.56C40.0942 97.112 39.9662 96.624 39.9662 96.096V87.984C39.9662 87.456 40.0942 86.976 40.3502 86.544C40.6222 86.096 40.9742 85.744 41.4062 85.488C41.8542 85.216 42.3422 85.08 42.8702 85.08H51.2222C51.7662 85.08 52.2542 85.216 52.6862 85.488C53.1342 85.744 53.4862 86.096 53.7422 86.544C54.0142 86.976 54.1502 87.456 54.1502 87.984V93.024H41.9342V96.096C41.9342 96.352 42.0222 96.576 42.1982 96.768C42.3902 96.944 42.6142 97.032 42.8702 97.032H54.1502V99H42.8702ZM41.9342 91.056H52.1582V87.984C52.1582 87.728 52.0622 87.512 51.8702 87.336C51.6942 87.144 51.4782 87.048 51.2222 87.048H42.8702C42.6142 87.048 42.3902 87.144 42.1982 87.336C42.0222 87.512 41.9342 87.728 41.9342 87.984V91.056ZM59.0426 99C58.5146 99 58.0266 98.872 57.5786 98.616C57.1466 98.344 56.7946 97.992 56.5226 97.56C56.2666 97.112 56.1386 96.624 56.1386 96.096V80.52H58.1066V96.096C58.1066 96.352 58.1946 96.576 58.3706 96.768C58.5626 96.944 58.7866 97.032 59.0426 97.032H61.3946V99H59.0426ZM63.3808 99V85.08H65.3488V99H63.3808ZM63.3808 82.488V80.52H65.3488V82.488H63.3808ZM70.677 104.496V102.504H79.365C79.621 102.504 79.837 102.408 80.013 102.216C80.205 102.04 80.301 101.824 80.301 101.568V99H71.013C70.485 99 69.997 98.872 69.549 98.616C69.117 98.344 68.765 97.992 68.493 97.56C68.237 97.112 68.109 96.624 68.109 96.096V87.984C68.109 87.456 68.237 86.976 68.493 86.544C68.765 86.096 69.117 85.744 69.549 85.488C69.997 85.216 70.485 85.08 71.013 85.08H79.365C79.909 85.08 80.397 85.216 80.829 85.488C81.277 85.744 81.629 86.096 81.885 86.544C82.141 86.976 82.269 87.456 82.269 87.984V101.568C82.269 102.112 82.141 102.6 81.885 103.032C81.629 103.48 81.277 103.832 80.829 104.088C80.397 104.36 79.909 104.496 79.365 104.496H70.677ZM71.013 97.032H79.365C79.621 97.032 79.837 96.944 80.013 96.768C80.205 96.576 80.301 96.352 80.301 96.096V87.984C80.301 87.728 80.205 87.512 80.013 87.336C79.837 87.144 79.621 87.048 79.365 87.048H71.013C70.757 87.048 70.533 87.144 70.341 87.336C70.165 87.512 70.077 87.728 70.077 87.984V96.096C70.077 96.352 70.165 96.576 70.341 96.768C70.533 96.944 70.757 97.032 71.013 97.032ZM87.2843 99C86.7563 99 86.2683 98.872 85.8203 98.616C85.3883 98.344 85.0363 97.992 84.7643 97.56C84.5083 97.112 84.3803 96.624 84.3803 96.096V87.984C84.3803 87.456 84.5083 86.976 84.7643 86.544C85.0363 86.096 85.3883 85.744 85.8203 85.488C86.2683 85.216 86.7563 85.08 87.2843 85.08H95.6363C96.1803 85.08 96.6683 85.216 97.1003 85.488C97.5483 85.744 97.9003 86.096 98.1562 86.544C98.4283 86.976 98.5643 87.456 98.5643 87.984V93.024H86.3483V96.096C86.3483 96.352 86.4363 96.576 86.6123 96.768C86.8043 96.944 87.0283 97.032 87.2843 97.032H98.5643V99H87.2843ZM86.3483 91.056H96.5723V87.984C96.5723 87.728 96.4763 87.512 96.2843 87.336C96.1083 87.144 95.8923 87.048 95.6363 87.048H87.2843C87.0283 87.048 86.8043 87.144 86.6123 87.336C86.4363 87.512 86.3483 87.728 86.3483 87.984V91.056ZM101.069 99V85.08H112.349C112.877 85.08 113.357 85.216 113.789 85.488C114.237 85.744 114.589 86.096 114.845 86.544C115.117 86.976 115.253 87.456 115.253 87.984V99H113.285V87.984C113.285 87.728 113.189 87.512 112.997 87.336C112.821 87.144 112.605 87.048 112.349 87.048H103.997C103.741 87.048 103.517 87.144 103.325 87.336C103.133 87.512 103.037 87.728 103.037 87.984V99H101.069ZM120.66 99C120.116 99 119.62 98.872 119.172 98.616C118.74 98.344 118.396 97.992 118.14 97.56C117.884 97.112 117.756 96.624 117.756 96.096V80.52H119.724V85.08H125.748V87.048H119.724V96.096C119.724 96.352 119.812 96.576 119.988 96.768C120.18 96.944 120.404 97.032 120.66 97.032H125.748V99H120.66ZM130.456 99C129.928 99 129.44 98.872 128.992 98.616C128.56 98.344 128.208 97.992 127.936 97.56C127.68 97.112 127.552 96.624 127.552 96.096V87.984C127.552 87.456 127.68 86.976 127.936 86.544C128.208 86.096 128.56 85.744 128.992 85.488C129.44 85.216 129.928 85.08 130.456 85.08H138.808C139.352 85.08 139.84 85.216 140.272 85.488C140.72 85.744 141.072 86.096 141.328 86.544C141.6 86.976 141.736 87.456 141.736 87.984V93.024H129.52V96.096C129.52 96.352 129.608 96.576 129.784 96.768C129.976 96.944 130.2 97.032 130.456 97.032H141.736V99H130.456ZM129.52 91.056H139.744V87.984C139.744 87.728 139.648 87.512 139.456 87.336C139.28 87.144 139.064 87.048 138.808 87.048H130.456C130.2 87.048 129.976 87.144 129.784 87.336C129.608 87.512 129.52 87.728 129.52 87.984V91.056Z" fill="#F71414"/>
<path d="M15.4336 72H96.7609V73.2H15.4336V72ZM101.13 72H134.557V73.2H101.13V72ZM7.05469 102H69.4797V103.2H7.05469V102ZM83.4344 102H142.936V103.2H83.4344V102Z" fill="#F71414"/>
</svg>
